<svg xmlns="http://www.w3.org/2000/svg" version="1.1" xmlns:xlink="http://www.w3.org/1999/xlink" width="65" height="65" x="0" y="0" viewBox="0 0 64 64" style="enable-background:new 0 0 512 512" xml:space="preserve">
  <rect width="64" height="64" rx="12.5" ry="12.5" fill="#0d12d9" shape="rounded"></rect>
  <g transform="matrix(0.7,0,0,0.7,9.600000000000001,9.600000000000001)">
    <linearGradient id="a" x1="2" x2="62" y1="32" y2="32" gradientUnits="userSpaceOnUse">
      <stop offset="0" stop-color="#008140"></stop>
      <stop offset="1" stop-color="#d31dc2"></stop>
    </linearGradient>
    <path fill="url(#a)" d="M12.997 26.718a8.627 8.627 0 0 1 5.336-14.62c.017-.444-.134-1.282.4-1.504a.752.752 0 0 1 .79.038l4.699 3.133a.754.754 0 0 1 .345.637.764.764 0 0 1-.345.638l-4.699 3.132a.787.787 0 0 1-.79.039c-.518-.235-.388-.985-.4-1.436a7.074 7.074 0 0 0-6.12 5.46 6.98 6.98 0 0 0 1.874 3.4.768.768 0 0 1-1.09 1.083zM49.92 37.283a.764.764 0 0 0-.008 1.083 6.98 6.98 0 0 1 1.874 3.401 7.074 7.074 0 0 1-6.12 5.46v-.76a.77.77 0 0 0-1.19-.638l-4.699 3.133a.766.766 0 0 0 0 1.274l4.7 3.133a.768.768 0 0 0 1.19-.637v-.83a8.597 8.597 0 0 0 5.336-14.619.764.764 0 0 0-1.083 0zM10.96 31.51l11.725 11.58 11.587-7.241-1.444-1.42-7.932 4.906a.77.77 0 0 1-1.036-.215.86.86 0 0 0-.707-.369.932.932 0 0 0-.59.215.779.779 0 0 1-1.007-.03L15.96 33.82a.775.775 0 0 1 .016-1.152.884.884 0 0 0 .315-.676.848.848 0 0 0-.162-.507.779.779 0 0 1 .223-1.098l7.61-4.707-1.421-1.405zm6.565 1.659a2.472 2.472 0 0 0 .207-1.828l7.356-4.545 6.612 6.519-7.088 4.392a2.472 2.472 0 0 0-2.434-.292zm3.448.092a2.272 2.272 0 0 0 2.418 2.08 2.277 2.277 0 0 0 2.42-2.08 2.278 2.278 0 0 0-2.42-2.089 2.273 2.273 0 0 0-2.418 2.089zm25.5-10.788a2.472 2.472 0 0 0-.207 1.827l-7.448 4.615-6.62-6.535 7.188-4.445a2.472 2.472 0 0 0 2.434.291zm-3.394-.023a2.445 2.445 0 0 0-4.837 0 2.446 2.446 0 0 0 4.837 0zm-3.977-6.143a.769.769 0 0 1 1.036.215.86.86 0 0 0 .707.368.932.932 0 0 0 .591-.215.779.779 0 0 1 1.006.031l5.598 5.114a.767.767 0 0 1-.016 1.144.912.912 0 0 0-.315.683.848.848 0 0 0 .162.507.769.769 0 0 1-.223 1.09l-7.71 4.777 1.421 1.405 11.68-7.295-11.726-11.58-11.687 7.303 1.444 1.42zm3.294 16.278a19.983 19.983 0 0 1 .046 2.058l11.057-6.91V25.65zm.046 5.944L53.5 31.617v-2.073l-11.057 6.91zm-20.325 10.48a.769.769 0 0 1-.538-.222L10.5 37.844v2.48L21.757 51.45l12.554-7.847v-2.065l-11.786 7.356a.76.76 0 0 1-.407.115zm-.077-4.399L10.5 33.206v2.48l11.725 11.58 12.086-7.54v-2.09L22.985 44.71a.766.766 0 0 1-.944-.1zm18.866-11.088-5.06 3.156v5.974l5.06-3.164zM28.291 20.682l-4.415 2.757 11.733 11.572 4.415-2.75zm12.37 1.214c-.506 0-.883.291-.883.553 0 .253.377.545.883.545s.883-.292.883-.545c0-.262-.376-.553-.883-.553zm-17.269 11.91c.5 0 .883-.293.883-.546 0-.261-.384-.553-.883-.553-.506 0-.883.292-.883.553 0 .253.377.545.883.545zM62 32A30 30 0 1 1 32 2a30.034 30.034 0 0 1 30 30zm-1.708 0A28.292 28.292 0 1 0 32 60.291 28.324 28.324 0 0 0 60.292 32z" opacity="1" data-original="url(#a)"></path>
  </g>
</svg>