<svg xmlns="http://www.w3.org/2000/svg" version="1.1" xmlns:xlink="http://www.w3.org/1999/xlink" width="65" height="65" x="0" y="0" viewBox="0 0 512 512" style="enable-background:new 0 0 512 512" xml:space="preserve">
  <rect width="512" height="512" rx="200" ry="200" fill="#e7dfdf" shape="rounded"></rect>
  <g transform="matrix(0.67,0,0,0.67,85.19114959716796,84.47999999999999)">
    <linearGradient id="a" x1="105.071" x2="411.239" y1="409.084" y2="102.916" gradientUnits="userSpaceOnUse">
      <stop offset="0" stop-color="#008040"></stop>
      <stop offset="1" stop-color="#2323cd"></stop>
    </linearGradient>
    <path fill="url(#a)" d="M256 208a24.027 24.027 0 0 1 24 24v8c0 3.913-.188 7.87-.559 11.761a8 8 0 0 1-15.928-1.519c.323-3.388.487-6.834.487-10.242v-8a8 8 0 0 0-16 0 123.557 123.557 0 0 1-7.222 41.681 8 8 0 0 1-15.068-5.381A107.582 107.582 0 0 0 232 232a24.028 24.028 0 0 1 24-24zm-32 184a7.976 7.976 0 0 0 5.657-2.343l29.088-29.089a182.416 182.416 0 0 0 15.4-17.52 8 8 0 0 0-12.669-9.772 166.657 166.657 0 0 1-14.049 15.979l-29.089 29.088A8 8 0 0 0 224 392zm16.7-196.971a8 8 0 0 0-6.126-14.781A55.857 55.857 0 0 0 200 232a8 8 0 0 0 16 0 39.9 39.9 0 0 1 24.7-36.971zm-49.947-10.011a8 8 0 0 0 11.292-.693 72.02 72.02 0 0 1 119.205 17.193 8 8 0 0 0 14.492-6.782 88.021 88.021 0 0 0-145.683-21.011 8 8 0 0 0 .693 11.293zM160 272a7.976 7.976 0 0 0 5.657-2.343l4.686-4.687A46.318 46.318 0 0 0 184 232a71.36 71.36 0 0 1 6.75-30.481 8 8 0 0 0-14.492-6.783A87.249 87.249 0 0 0 168 232a30.43 30.43 0 0 1-8.97 21.657l-4.687 4.686A8 8 0 0 0 160 272zm-61.845 64V176c0-88.224 71.776-160 160-160s160 71.776 160 160v160c0 88.224-71.776 160-160 160s-160-71.776-160-160zm16-160v104h66.5a69.517 69.517 0 0 0 16.251-27.539 8 8 0 0 1 15.286 4.728A85.46 85.46 0 0 1 201.186 280h55.12q1.871-4.674 3.3-9.52a8 8 0 0 1 15.347 4.52 131.496 131.496 0 0 1-1.6 5h15.536A165.916 165.916 0 0 0 296 232a40.254 40.254 0 0 0-33.822-39.527 8 8 0 1 1 2.447-15.811A56.013 56.013 0 0 1 312 232a181.8 181.8 0 0 1-6.464 48h16.754a203.73 203.73 0 0 0 5.71-48 72.95 72.95 0 0 0-.645-9.685 8 8 0 1 1 15.857-2.132A88.957 88.957 0 0 1 344 232a219.868 219.868 0 0 1-5.271 48h63.426V176c0-79.4-64.6-144-144-144s-144 64.6-144 144zm0 160c0 79.4 64.6 144 144 144s144-64.6 144-144v-40h-67.638q-3.135 10.309-7.3 20.363a219.361 219.361 0 0 1-47.787 71.519l-33.775 33.775a8 8 0 0 1-11.314-11.314l33.775-33.775a203.44 203.44 0 0 0 44.319-66.328q2.919-7.048 5.3-14.24h-17.388a181.65 181.65 0 0 1-13.263 27.868 8 8 0 1 1-13.807-8.084A165.483 165.483 0 0 0 283.146 296H266.6a124.163 124.163 0 0 1-22.885 31.6l-30.059 30.059a8 8 0 0 1-11.314-11.314l30.058-30.061A107.9 107.9 0 0 0 248.3 296h-19.58a7.958 7.958 0 0 1-1.329 4.419 124.185 124.185 0 0 1-15.675 19.181l-14.059 14.059a8 8 0 0 1-11.314-11.314l14.057-14.061A108.271 108.271 0 0 0 210.966 296h-23.653l-5.656 5.657A8 8 0 0 1 168 296h-53.845zM255.4 128a9 9 0 1 0-9-9 9 9 0 0 0 9 9zm-31.7 0a9 9 0 1 0-9-9 9 9 0 0 0 9 9zm62-2a7 7 0 1 0-7-7 7 7 0 0 0 7 7z" opacity="1" data-original="url(#a)"></path>
  </g>
</svg>